<svg width="249" height="69" viewBox="0 0 249 69" fill="none" xmlns="http://www.w3.org/2000/svg">
<path d="M0.1875 1.53906C1.04688 1.64323 1.82812 1.72135 2.53125 1.77344C3.20833 1.82552 3.79427 1.8776 4.28906 1.92969C4.86198 1.98177 5.36979 2.02083 5.8125 2.04688C6.28125 2.04688 6.88021 2.03385 7.60938 2.00781C8.23438 1.98177 9.02865 1.94271 9.99219 1.89062C10.9557 1.83854 12.1406 1.7474 13.5469 1.61719C12.8698 2.00781 12.3099 2.39844 11.8672 2.78906C11.4505 3.17969 11.125 3.53125 10.8906 3.84375C10.6042 4.20833 10.3958 4.57292 10.2656 4.9375C10.1875 5.43229 10.2135 6.39583 10.3438 7.82812C10.3958 8.42708 10.474 9.16927 10.5781 10.0547C10.7083 10.9141 10.8646 11.9427 11.0469 13.1406C11.2552 14.3125 11.5026 15.6667 11.7891 17.2031C12.1016 18.7396 12.4531 20.4844 12.8438 22.4375C13.3646 20.9531 13.7943 19.638 14.1328 18.4922C14.4714 17.3203 14.7578 16.3177 14.9922 15.4844C15.2526 14.5469 15.474 13.7135 15.6562 12.9844C15.8385 12.2292 16.0599 11.2526 16.3203 10.0547C16.5286 9.03906 16.8021 7.72396 17.1406 6.10938C17.4792 4.49479 17.8958 2.5026 18.3906 0.132812L19.7969 0.328125C19.9271 2.17708 20.0573 3.80469 20.1875 5.21094C20.3438 6.61719 20.474 7.8151 20.5781 8.80469C20.6823 9.95052 20.7865 10.9401 20.8906 11.7734C20.9948 12.5286 21.151 13.401 21.3594 14.3906C21.5417 15.224 21.776 16.2526 22.0625 17.4766C22.349 18.6745 22.7266 20.0286 23.1953 21.5391C23.6641 19.6901 24.0807 18.0365 24.4453 16.5781C24.8359 15.1198 25.1615 13.8307 25.4219 12.7109C25.7083 11.5911 25.9427 10.6276 26.125 9.82031C26.3333 9.01302 26.5026 8.33594 26.6328 7.78906C26.9193 6.48698 27.0885 5.61458 27.1406 5.17188C27.1146 4.67708 26.9974 4.19531 26.7891 3.72656C26.6068 3.3099 26.3203 2.85417 25.9297 2.35938C25.5391 1.86458 24.9661 1.38281 24.2109 0.914062C25.7995 0.966146 27.0885 1.00521 28.0781 1.03125C29.0938 1.03125 29.901 1.03125 30.5 1.03125H32.0625H33.4688C33.9896 1.03125 34.6667 1.03125 35.5 1.03125C36.3594 1.00521 37.4531 0.966146 38.7812 0.914062C37.6354 1.51302 36.7109 2.0599 36.0078 2.55469C35.3047 3.04948 34.7578 3.46615 34.3672 3.80469C33.8984 4.22135 33.5599 4.57292 33.3516 4.85938C33.1432 5.38021 32.8047 6.55208 32.3359 8.375C32.1276 9.15625 31.8932 10.1328 31.6328 11.3047C31.3724 12.4505 31.0599 13.8307 30.6953 15.4453C30.3568 17.0599 29.9661 18.9479 29.5234 21.1094C29.0807 23.2448 28.5859 25.6927 28.0391 28.4531L21.2812 27.75L18.3906 15.6016C17.9479 17.8151 17.5964 19.612 17.3359 20.9922C17.0755 22.3464 16.8802 23.401 16.75 24.1562C16.5938 25.0677 16.5026 25.7318 16.4766 26.1484C16.4505 26.513 16.4245 26.8646 16.3984 27.2031C16.3724 27.4896 16.3333 27.8021 16.2812 28.1406C16.2552 28.4792 16.2161 28.7917 16.1641 29.0781H9.25C8.57292 26.1094 7.96094 23.4922 7.41406 21.2266C6.89323 18.9349 6.42448 16.9297 6.00781 15.2109C5.59115 13.4922 5.22656 12.0339 4.91406 10.8359C4.6276 9.63802 4.36719 8.63542 4.13281 7.82812C3.61198 5.95312 3.23438 4.79427 3 4.35156C2.81771 4.14323 2.58333 3.89583 2.29688 3.60938C2.0625 3.375 1.77604 3.08854 1.4375 2.75C1.07292 2.38542 0.65625 1.98177 0.1875 1.53906ZM43.9375 22.7109C44.6667 22.7109 45.3438 22.6328 45.9688 22.4766C46.4896 22.3464 46.9844 22.138 47.4531 21.8516C47.9479 21.5391 48.2734 21.0833 48.4297 20.4844C48.9505 20.5885 49.3932 20.6797 49.7578 20.7578C50.1224 20.8099 50.4349 20.862 50.6953 20.9141C50.9818 20.9922 51.2292 21.0443 51.4375 21.0703C51.6458 21.1224 51.8932 21.1745 52.1797 21.2266C52.4401 21.2786 52.7526 21.3438 53.1172 21.4219C53.5078 21.474 53.9635 21.5521 54.4844 21.6562C54.0938 21.6042 53.6901 21.6432 53.2734 21.7734C52.8828 21.9036 52.5052 22.0469 52.1406 22.2031C51.724 22.3854 51.3333 22.6068 50.9688 22.8672C50.7344 23.0234 50.4609 23.2578 50.1484 23.5703C49.862 23.8828 49.4453 24.1823 48.8984 24.4688C48.3516 24.7552 47.6224 25.0026 46.7109 25.2109C45.8255 25.3932 44.6797 25.4583 43.2734 25.4062C41.5807 25.3542 40.1615 25.0547 39.0156 24.5078C37.8698 23.9349 36.9453 23.2448 36.2422 22.4375C35.5391 21.6042 35.0312 20.7057 34.7188 19.7422C34.4062 18.7786 34.237 17.8802 34.2109 17.0469C34.1849 16.2135 34.4323 15.3411 34.9531 14.4297C35.474 13.5182 36.2031 12.6849 37.1406 11.9297C38.1042 11.1745 39.263 10.5625 40.6172 10.0938C41.9714 9.59896 43.4557 9.35156 45.0703 9.35156C46.0078 9.35156 46.8672 9.46875 47.6484 9.70312C48.4557 9.91146 49.1849 10.1979 49.8359 10.5625C50.513 10.9271 51.099 11.3438 51.5938 11.8125C52.0885 12.2552 52.5052 12.7109 52.8438 13.1797C53.1823 13.6745 53.4688 14.1953 53.7031 14.7422C53.9115 15.2109 54.0807 15.7448 54.2109 16.3438C54.3411 16.9427 54.3802 17.5547 54.3281 18.1797C52.349 18.2318 50.7474 18.2708 49.5234 18.2969C48.3255 18.3229 47.388 18.3359 46.7109 18.3359H44.9531H43.625C43.1562 18.3359 42.5443 18.349 41.7891 18.375C41.0339 18.401 40.1094 18.4401 39.0156 18.4922C39.1458 19.5339 39.4714 20.3411 39.9922 20.9141C40.5391 21.4609 41.112 21.8776 41.7109 22.1641C42.388 22.4766 43.1302 22.6589 43.9375 22.7109ZM40.4219 15.6797C41.2552 15.7318 41.9453 15.7708 42.4922 15.7969C43.0651 15.8229 43.5339 15.849 43.8984 15.875C44.2891 15.901 44.6016 15.9141 44.8359 15.9141H45.8125C46.4635 15.9141 47.6745 15.875 49.4453 15.7969C49.3672 14.651 49.1198 13.7786 48.7031 13.1797C48.3125 12.5807 47.8958 12.138 47.4531 11.8516C46.9323 11.5391 46.3594 11.3568 45.7344 11.3047C44.0417 11.3307 42.7786 11.6823 41.9453 12.3594C41.138 13.0365 40.6302 14.1432 40.4219 15.6797ZM55.8906 1.57812C56.4896 1.73438 57.0365 1.85156 57.5312 1.92969C58.0521 1.98177 58.4948 2.02083 58.8594 2.04688C59.3021 2.07292 59.7057 2.08594 60.0703 2.08594C60.4349 2.08594 60.8906 2.0599 61.4375 2.00781C62.401 1.92969 63.7682 1.73438 65.5391 1.42188C65.2526 1.63021 64.9792 1.83854 64.7188 2.04688C64.4844 2.22917 64.276 2.41146 64.0938 2.59375L63.5078 3.17969C63.1693 3.64844 62.8307 4.44271 62.4922 5.5625C62.2057 6.52604 61.8932 7.88021 61.5547 9.625C61.2422 11.3698 60.9557 13.6875 60.6953 16.5781C61.9714 15.3281 63.1693 14.3906 64.2891 13.7656C65.4349 13.1146 66.4375 12.6458 67.2969 12.3594C68.3125 12.0469 69.237 11.8776 70.0703 11.8516C71.138 11.9297 72.0625 12.151 72.8438 12.5156C73.651 12.8542 74.3281 13.2708 74.875 13.7656C75.4479 14.2344 75.9036 14.7292 76.2422 15.25C76.6068 15.7448 76.8802 16.1875 77.0625 16.5781C77.1667 16.8385 77.2448 17.3203 77.2969 18.0234C77.375 18.7005 77.388 19.4818 77.3359 20.3672C77.2839 21.2526 77.1406 22.1901 76.9062 23.1797C76.6979 24.1432 76.3464 25.0417 75.8516 25.875C75.3828 26.6823 74.7578 27.3594 73.9766 27.9062C73.2214 28.4531 72.2708 28.7526 71.125 28.8047C69.7969 28.8047 68.5078 28.6484 67.2578 28.3359C66.1901 28.0755 65.0573 27.6198 63.8594 26.9688C62.6875 26.2917 61.6849 25.3281 60.8516 24.0781C60.8516 24.3906 60.8516 24.7031 60.8516 25.0156C60.8516 25.3021 60.8646 25.5495 60.8906 25.7578C60.9167 26.0443 60.9427 26.2917 60.9688 26.5C60.9948 26.7344 61.0599 26.9818 61.1641 27.2422C61.2422 27.4505 61.3594 27.7109 61.5156 28.0234C61.6979 28.3099 61.9323 28.5964 62.2188 28.8828C61.9323 28.8568 61.6458 28.8438 61.3594 28.8438C61.0729 28.8177 60.7865 28.8177 60.5 28.8438C60.1875 28.8698 59.875 28.8958 59.5625 28.9219C59.25 28.9479 58.9245 28.987 58.5859 29.0391C58.2995 29.0911 57.9609 29.1562 57.5703 29.2344C57.1797 29.3125 56.776 29.4036 56.3594 29.5078C56.4375 29.2734 56.5026 28.9349 56.5547 28.4922C56.6068 28.0234 56.6589 27.5156 56.7109 26.9688C56.7891 26.3958 56.8411 25.7969 56.8672 25.1719C56.9193 24.5469 56.9714 23.9219 57.0234 23.2969C57.1276 21.8646 57.2188 20.3021 57.2969 18.6094C57.375 15.9792 57.388 13.5312 57.3359 11.2656C57.3099 10.3021 57.2578 9.32552 57.1797 8.33594C57.1276 7.34635 57.0495 6.42188 56.9453 5.5625C56.8411 4.67708 56.6979 3.89583 56.5156 3.21875C56.3594 2.51562 56.151 1.96875 55.8906 1.57812ZM60.9688 20.6016C61.3854 21.3568 61.8281 22.0078 62.2969 22.5547C62.7656 23.0755 63.2344 23.5182 63.7031 23.8828C64.1719 24.2474 64.6276 24.5339 65.0703 24.7422C65.5391 24.9505 65.9818 25.1068 66.3984 25.2109C67.362 25.4714 68.3125 25.4974 69.25 25.2891C70.1875 25.0286 70.9167 24.5078 71.4375 23.7266C71.9583 22.9453 72.362 22.0599 72.6484 21.0703C72.7786 20.6016 72.8568 20.0026 72.8828 19.2734C72.9349 18.5443 72.8568 17.8411 72.6484 17.1641C72.4661 16.4609 72.1276 15.849 71.6328 15.3281C71.138 14.7812 70.4219 14.4557 69.4844 14.3516C68.8333 14.3516 68.0781 14.5339 67.2188 14.8984C66.4635 15.2109 65.5651 15.7318 64.5234 16.4609C63.4818 17.1641 62.2969 18.2188 60.9688 19.625V20.6016ZM90.5781 1.14844C91.4896 1.27865 92.2839 1.38281 92.9609 1.46094C93.638 1.53906 94.1979 1.60417 94.6406 1.65625C95.1615 1.70833 95.6042 1.7474 95.9688 1.77344C96.3854 1.82552 96.8932 1.79948 97.4922 1.69531C98.1172 1.59115 98.7812 1.48698 99.4844 1.38281C100.188 1.2526 100.917 1.14844 101.672 1.07031C102.427 0.992188 103.156 0.992188 103.859 1.07031C104.328 1.1224 104.927 1.22656 105.656 1.38281C106.385 1.53906 107.154 1.78646 107.961 2.125C108.794 2.46354 109.628 2.90625 110.461 3.45312C111.294 4 112.049 4.6901 112.727 5.52344C113.404 6.35677 113.964 7.34635 114.406 8.49219C114.849 9.63802 115.096 10.9792 115.148 12.5156C115.227 14.8073 115.018 16.8906 114.523 18.7656C114.029 20.6406 113.26 22.2422 112.219 23.5703C111.203 24.8984 109.914 25.9401 108.352 26.6953C106.789 27.4505 104.966 27.8672 102.883 27.9453C101.294 28.0755 99.7318 28.1927 98.1953 28.2969C97.5443 28.349 96.8542 28.388 96.125 28.4141C95.4219 28.4401 94.7188 28.4661 94.0156 28.4922C93.3125 28.4922 92.6354 28.4792 91.9844 28.4531C91.3333 28.4271 90.7344 28.388 90.1875 28.3359C90.7865 28.0495 91.2682 27.763 91.6328 27.4766C92.0234 27.1901 92.3229 26.9427 92.5312 26.7344C92.7656 26.474 92.9349 26.2396 93.0391 26.0312C93.0911 25.7448 93.1693 25.1849 93.2734 24.3516C93.3516 23.6484 93.4557 22.6458 93.5859 21.3438C93.7161 20.0417 93.8724 18.2708 94.0547 16.0312L94.2891 13.2578C94.4193 11.5391 94.4714 10.1328 94.4453 9.03906C94.4453 7.94531 94.4193 7.08594 94.3672 6.46094C94.2891 5.73177 94.1849 5.19792 94.0547 4.85938C93.9505 4.57292 93.7552 4.23438 93.4688 3.84375C93.2083 3.53125 92.8438 3.15365 92.375 2.71094C91.9323 2.24219 91.3333 1.72135 90.5781 1.14844ZM98.8203 15.5234C98.8724 17.8411 98.9896 19.625 99.1719 20.875C99.3802 22.099 99.6016 23.0104 99.8359 23.6094C100.122 24.2865 100.435 24.6901 100.773 24.8203C101.268 24.8203 101.828 24.612 102.453 24.1953C103.078 23.7526 103.69 23.0885 104.289 22.2031C104.914 21.3177 105.474 20.2109 105.969 18.8828C106.49 17.5547 106.867 16.0052 107.102 14.2344C107.336 12.4635 107.271 10.901 106.906 9.54688C106.542 8.19271 106.06 7.0599 105.461 6.14844C104.862 5.21094 104.25 4.50781 103.625 4.03906C103 3.54427 102.531 3.29688 102.219 3.29688C101.854 3.29688 101.529 3.40104 101.242 3.60938C100.956 3.79167 100.552 4.22135 100.031 4.89844C99.7708 5.26302 99.5365 5.78385 99.3281 6.46094C99.1458 7.0599 98.9896 7.85417 98.8594 8.84375C98.7292 9.83333 98.6901 11.1094 98.7422 12.6719L98.8203 15.5234ZM127.102 22.7109C127.831 22.7109 128.508 22.6328 129.133 22.4766C129.654 22.3464 130.148 22.138 130.617 21.8516C131.112 21.5391 131.438 21.0833 131.594 20.4844C132.115 20.5885 132.557 20.6797 132.922 20.7578C133.286 20.8099 133.599 20.862 133.859 20.9141C134.146 20.9922 134.393 21.0443 134.602 21.0703C134.81 21.1224 135.057 21.1745 135.344 21.2266C135.604 21.2786 135.917 21.3438 136.281 21.4219C136.672 21.474 137.128 21.5521 137.648 21.6562C137.258 21.6042 136.854 21.6432 136.438 21.7734C136.047 21.9036 135.669 22.0469 135.305 22.2031C134.888 22.3854 134.497 22.6068 134.133 22.8672C133.898 23.0234 133.625 23.2578 133.312 23.5703C133.026 23.8828 132.609 24.1823 132.062 24.4688C131.516 24.7552 130.786 25.0026 129.875 25.2109C128.99 25.3932 127.844 25.4583 126.438 25.4062C124.745 25.3542 123.326 25.0547 122.18 24.5078C121.034 23.9349 120.109 23.2448 119.406 22.4375C118.703 21.6042 118.195 20.7057 117.883 19.7422C117.57 18.7786 117.401 17.8802 117.375 17.0469C117.349 16.2135 117.596 15.3411 118.117 14.4297C118.638 13.5182 119.367 12.6849 120.305 11.9297C121.268 11.1745 122.427 10.5625 123.781 10.0938C125.135 9.59896 126.62 9.35156 128.234 9.35156C129.172 9.35156 130.031 9.46875 130.812 9.70312C131.62 9.91146 132.349 10.1979 133 10.5625C133.677 10.9271 134.263 11.3438 134.758 11.8125C135.253 12.2552 135.669 12.7109 136.008 13.1797C136.346 13.6745 136.633 14.1953 136.867 14.7422C137.076 15.2109 137.245 15.7448 137.375 16.3438C137.505 16.9427 137.544 17.5547 137.492 18.1797C135.513 18.2318 133.911 18.2708 132.688 18.2969C131.49 18.3229 130.552 18.3359 129.875 18.3359H128.117H126.789C126.32 18.3359 125.708 18.349 124.953 18.375C124.198 18.401 123.273 18.4401 122.18 18.4922C122.31 19.5339 122.635 20.3411 123.156 20.9141C123.703 21.4609 124.276 21.8776 124.875 22.1641C125.552 22.4766 126.294 22.6589 127.102 22.7109ZM123.586 15.6797C124.419 15.7318 125.109 15.7708 125.656 15.7969C126.229 15.8229 126.698 15.849 127.062 15.875C127.453 15.901 127.766 15.9141 128 15.9141H128.977C129.628 15.9141 130.839 15.875 132.609 15.7969C132.531 14.651 132.284 13.7786 131.867 13.1797C131.477 12.5807 131.06 12.138 130.617 11.8516C130.096 11.5391 129.523 11.3568 128.898 11.3047C127.206 11.3307 125.943 11.6823 125.109 12.3594C124.302 13.0365 123.794 14.1432 123.586 15.6797ZM138.586 4.39062C139.367 4.46875 140.018 4.53385 140.539 4.58594C141.086 4.63802 141.529 4.67708 141.867 4.70312C142.258 4.72917 142.57 4.74219 142.805 4.74219C143.039 4.76823 143.352 4.76823 143.742 4.74219C144.081 4.71615 144.523 4.6901 145.07 4.66406C145.617 4.61198 146.307 4.53385 147.141 4.42969C146.958 4.6901 146.815 4.92448 146.711 5.13281C146.607 5.3151 146.516 5.48438 146.438 5.64062L146.203 6.10938C146.151 6.26562 146.099 6.42188 146.047 6.57812C145.995 6.70833 145.943 6.86458 145.891 7.04688C145.865 7.22917 145.839 7.42448 145.812 7.63281H151.828L151.281 10.7969L145.773 10.4844C145.643 11.8125 145.552 12.8411 145.5 13.5703C145.448 14.2995 145.396 14.8333 145.344 15.1719L145.266 15.875C145.188 16.8646 145.109 17.9453 145.031 19.1172C144.953 20.263 144.927 21.3307 144.953 22.3203C144.979 23.3099 145.07 24.1432 145.227 24.8203C145.383 25.4714 145.656 25.7969 146.047 25.7969C146.438 25.7969 146.802 25.6927 147.141 25.4844C147.479 25.276 147.766 25.0286 148 24.7422C148.26 24.4557 148.456 24.1693 148.586 23.8828C148.716 23.5703 148.781 23.3359 148.781 23.1797C148.781 23.0234 148.742 22.8411 148.664 22.6328C148.534 22.2422 148.299 21.7474 147.961 21.1484C148.716 21.3307 149.38 21.513 149.953 21.6953C150.24 21.7995 150.5 21.9036 150.734 22.0078C150.995 22.112 151.294 22.2292 151.633 22.3594C151.919 22.4896 152.284 22.6458 152.727 22.8281C153.169 23.0104 153.69 23.2318 154.289 23.4922C153.716 23.5964 153.299 23.7656 153.039 24C152.883 24.1042 152.766 24.2214 152.688 24.3516C152.505 24.638 152.297 25.0286 152.062 25.5234C151.828 25.9922 151.477 26.4609 151.008 26.9297C150.539 27.3984 149.901 27.8151 149.094 28.1797C148.312 28.5443 147.258 28.7526 145.93 28.8047C144.549 28.8568 143.495 28.6224 142.766 28.1016C142.062 27.5807 141.542 26.9818 141.203 26.3047C140.891 25.6016 140.708 24.9115 140.656 24.2344C140.604 23.5573 140.565 23.1016 140.539 22.8672C140.513 22.6328 140.513 22.0469 140.539 21.1094C140.565 20.1719 140.604 19.1432 140.656 18.0234C140.708 16.8776 140.76 15.7839 140.812 14.7422C140.865 13.6745 140.891 12.8932 140.891 12.3984C140.891 12.138 140.904 11.8646 140.93 11.5781C140.93 11.3438 140.93 11.0964 140.93 10.8359C140.956 10.5495 140.969 10.276 140.969 10.0156L135.305 9.97656L135.07 7.75L140.773 7.90625C140.721 7.61979 140.656 7.35938 140.578 7.125C140.526 6.86458 140.474 6.65625 140.422 6.5C140.344 6.31771 140.266 6.16146 140.188 6.03125C140.083 5.90104 139.966 5.75781 139.836 5.60156C139.706 5.47135 139.536 5.30208 139.328 5.09375C139.12 4.88542 138.872 4.65104 138.586 4.39062ZM162.844 22.7109C163.573 22.7109 164.25 22.6328 164.875 22.4766C165.396 22.3464 165.891 22.138 166.359 21.8516C166.854 21.5391 167.18 21.0833 167.336 20.4844C167.857 20.5885 168.299 20.6797 168.664 20.7578C169.029 20.8099 169.341 20.862 169.602 20.9141C169.888 20.9922 170.135 21.0443 170.344 21.0703C170.552 21.1224 170.799 21.1745 171.086 21.2266C171.346 21.2786 171.659 21.3438 172.023 21.4219C172.414 21.474 172.87 21.5521 173.391 21.6562C173 21.6042 172.596 21.6432 172.18 21.7734C171.789 21.9036 171.411 22.0469 171.047 22.2031C170.63 22.3854 170.24 22.6068 169.875 22.8672C169.641 23.0234 169.367 23.2578 169.055 23.5703C168.768 23.8828 168.352 24.1823 167.805 24.4688C167.258 24.7552 166.529 25.0026 165.617 25.2109C164.732 25.3932 163.586 25.4583 162.18 25.4062C160.487 25.3542 159.068 25.0547 157.922 24.5078C156.776 23.9349 155.852 23.2448 155.148 22.4375C154.445 21.6042 153.938 20.7057 153.625 19.7422C153.312 18.7786 153.143 17.8802 153.117 17.0469C153.091 16.2135 153.339 15.3411 153.859 14.4297C154.38 13.5182 155.109 12.6849 156.047 11.9297C157.01 11.1745 158.169 10.5625 159.523 10.0938C160.878 9.59896 162.362 9.35156 163.977 9.35156C164.914 9.35156 165.773 9.46875 166.555 9.70312C167.362 9.91146 168.091 10.1979 168.742 10.5625C169.419 10.9271 170.005 11.3438 170.5 11.8125C170.995 12.2552 171.411 12.7109 171.75 13.1797C172.089 13.6745 172.375 14.1953 172.609 14.7422C172.818 15.2109 172.987 15.7448 173.117 16.3438C173.247 16.9427 173.286 17.5547 173.234 18.1797C171.255 18.2318 169.654 18.2708 168.43 18.2969C167.232 18.3229 166.294 18.3359 165.617 18.3359H163.859H162.531C162.062 18.3359 161.451 18.349 160.695 18.375C159.94 18.401 159.016 18.4401 157.922 18.4922C158.052 19.5339 158.378 20.3411 158.898 20.9141C159.445 21.4609 160.018 21.8776 160.617 22.1641C161.294 22.4766 162.036 22.6589 162.844 22.7109ZM159.328 15.6797C160.161 15.7318 160.852 15.7708 161.398 15.7969C161.971 15.8229 162.44 15.849 162.805 15.875C163.195 15.901 163.508 15.9141 163.742 15.9141H164.719C165.37 15.9141 166.581 15.875 168.352 15.7969C168.273 14.651 168.026 13.7786 167.609 13.1797C167.219 12.5807 166.802 12.138 166.359 11.8516C165.839 11.5391 165.266 11.3568 164.641 11.3047C162.948 11.3307 161.685 11.6823 160.852 12.3594C160.044 13.0365 159.536 14.1432 159.328 15.6797ZM196.633 15.1328C196.32 15.0807 195.93 15.0417 195.461 15.0156C195.018 14.9896 194.589 14.9766 194.172 14.9766C193.703 14.9766 193.208 14.9896 192.688 15.0156C192.141 15.0417 191.594 15.0677 191.047 15.0938C190.578 15.1198 190.044 15.1589 189.445 15.2109C188.872 15.237 188.312 15.276 187.766 15.3281C187.974 15.224 188.156 15.0807 188.312 14.8984C188.495 14.7161 188.651 14.5339 188.781 14.3516C188.911 14.1432 189.029 13.9219 189.133 13.6875C189.263 13.2969 189.25 12.8281 189.094 12.2812C188.938 11.7083 188.651 11.1875 188.234 10.7188C187.844 10.25 187.336 9.88542 186.711 9.625C186.112 9.33854 185.448 9.27344 184.719 9.42969C183.938 9.61198 183.234 9.88542 182.609 10.25C182.01 10.6146 181.503 11.1224 181.086 11.7734C180.695 12.3984 180.409 13.1797 180.227 14.1172C180.07 15.0286 180.031 16.1224 180.109 17.3984C180.214 18.987 180.474 20.25 180.891 21.1875C181.307 22.125 181.815 22.8281 182.414 23.2969C183.013 23.7656 183.664 24.0521 184.367 24.1562C185.096 24.2344 185.812 24.2344 186.516 24.1562C187.01 24.0521 187.466 23.8307 187.883 23.4922C188.221 23.2057 188.534 22.7891 188.82 22.2422C189.107 21.6953 189.237 20.9401 189.211 19.9766L193.977 19.7812C193.43 21.3177 192.766 22.5417 191.984 23.4531C191.203 24.3385 190.448 25.0286 189.719 25.5234C188.859 26.0964 188 26.487 187.141 26.6953C186.073 26.8776 185.122 26.9557 184.289 26.9297C183.456 26.8776 182.701 26.7474 182.023 26.5391C181.346 26.3307 180.721 26.0703 180.148 25.7578C179.576 25.4453 179.029 25.1068 178.508 24.7422C178.169 24.5078 177.792 24.1172 177.375 23.5703C176.958 23.0234 176.568 22.3724 176.203 21.6172C175.839 20.8359 175.539 19.9766 175.305 19.0391C175.07 18.1016 174.979 17.138 175.031 16.1484C175.083 15.1328 175.318 14.1172 175.734 13.1016C176.151 12.0859 176.815 11.1094 177.727 10.1719C179.107 8.76562 180.578 7.85417 182.141 7.4375C183.729 6.99479 185.227 6.8776 186.633 7.08594C188.039 7.26823 189.289 7.67188 190.383 8.29688C191.477 8.92188 192.245 9.59896 192.688 10.3281C193.13 11.0573 193.456 11.6172 193.664 12.0078C193.898 12.3724 194.068 12.6589 194.172 12.8672C194.302 13.0495 194.406 13.1927 194.484 13.2969C194.589 13.375 194.732 13.4922 194.914 13.6484C195.044 13.7786 195.201 13.9219 195.383 14.0781C195.539 14.2083 195.721 14.3646 195.93 14.5469C196.138 14.7292 196.372 14.9245 196.633 15.1328ZM195.578 4.39062C196.359 4.46875 197.01 4.53385 197.531 4.58594C198.078 4.63802 198.521 4.67708 198.859 4.70312C199.25 4.72917 199.562 4.74219 199.797 4.74219C200.031 4.76823 200.344 4.76823 200.734 4.74219C201.073 4.71615 201.516 4.6901 202.062 4.66406C202.609 4.61198 203.299 4.53385 204.133 4.42969C203.951 4.6901 203.807 4.92448 203.703 5.13281C203.599 5.3151 203.508 5.48438 203.43 5.64062L203.195 6.10938C203.143 6.26562 203.091 6.42188 203.039 6.57812C202.987 6.70833 202.935 6.86458 202.883 7.04688C202.857 7.22917 202.831 7.42448 202.805 7.63281H208.82L208.273 10.7969L202.766 10.4844C202.635 11.8125 202.544 12.8411 202.492 13.5703C202.44 14.2995 202.388 14.8333 202.336 15.1719L202.258 15.875C202.18 16.8646 202.102 17.9453 202.023 19.1172C201.945 20.263 201.919 21.3307 201.945 22.3203C201.971 23.3099 202.062 24.1432 202.219 24.8203C202.375 25.4714 202.648 25.7969 203.039 25.7969C203.43 25.7969 203.794 25.6927 204.133 25.4844C204.471 25.276 204.758 25.0286 204.992 24.7422C205.253 24.4557 205.448 24.1693 205.578 23.8828C205.708 23.5703 205.773 23.3359 205.773 23.1797C205.773 23.0234 205.734 22.8411 205.656 22.6328C205.526 22.2422 205.292 21.7474 204.953 21.1484C205.708 21.3307 206.372 21.513 206.945 21.6953C207.232 21.7995 207.492 21.9036 207.727 22.0078C207.987 22.112 208.286 22.2292 208.625 22.3594C208.911 22.4896 209.276 22.6458 209.719 22.8281C210.161 23.0104 210.682 23.2318 211.281 23.4922C210.708 23.5964 210.292 23.7656 210.031 24C209.875 24.1042 209.758 24.2214 209.68 24.3516C209.497 24.638 209.289 25.0286 209.055 25.5234C208.82 25.9922 208.469 26.4609 208 26.9297C207.531 27.3984 206.893 27.8151 206.086 28.1797C205.305 28.5443 204.25 28.7526 202.922 28.8047C201.542 28.8568 200.487 28.6224 199.758 28.1016C199.055 27.5807 198.534 26.9818 198.195 26.3047C197.883 25.6016 197.701 24.9115 197.648 24.2344C197.596 23.5573 197.557 23.1016 197.531 22.8672C197.505 22.6328 197.505 22.0469 197.531 21.1094C197.557 20.1719 197.596 19.1432 197.648 18.0234C197.701 16.8776 197.753 15.7839 197.805 14.7422C197.857 13.6745 197.883 12.8932 197.883 12.3984C197.883 12.138 197.896 11.8646 197.922 11.5781C197.922 11.3438 197.922 11.0964 197.922 10.8359C197.948 10.5495 197.961 10.276 197.961 10.0156L192.297 9.97656L192.062 7.75L197.766 7.90625C197.714 7.61979 197.648 7.35938 197.57 7.125C197.518 6.86458 197.466 6.65625 197.414 6.5C197.336 6.31771 197.258 6.16146 197.18 6.03125C197.076 5.90104 196.958 5.75781 196.828 5.60156C196.698 5.47135 196.529 5.30208 196.32 5.09375C196.112 4.88542 195.865 4.65104 195.578 4.39062ZM220.148 11.5C220.826 11.5 221.529 11.6302 222.258 11.8906C222.987 12.125 223.69 12.4375 224.367 12.8281C225.044 13.1927 225.656 13.5964 226.203 14.0391C226.776 14.4557 227.245 14.8594 227.609 15.25C228.26 15.9531 228.703 16.9036 228.938 18.1016C229.198 19.2734 229.25 20.4844 229.094 21.7344C228.938 22.9583 228.573 24.1172 228 25.2109C227.427 26.3047 226.633 27.112 225.617 27.6328C224.888 27.9974 224.172 28.2839 223.469 28.4922C222.766 28.7005 222.089 28.8568 221.438 28.9609C220.786 29.0651 220.174 29.1172 219.602 29.1172C219.029 29.1172 218.534 29.1042 218.117 29.0781C217.336 29.026 216.516 28.7526 215.656 28.2578C214.823 27.763 214.029 27.151 213.273 26.4219C212.544 25.6927 211.919 24.8984 211.398 24.0391C210.878 23.1536 210.565 22.3203 210.461 21.5391C210.305 20.4714 210.279 19.3516 210.383 18.1797C210.487 17.0078 210.865 15.9271 211.516 14.9375C212.193 13.9479 213.208 13.1276 214.562 12.4766C215.943 11.8255 217.805 11.5 220.148 11.5ZM218.859 26.6562C219.146 26.7083 219.536 26.6432 220.031 26.4609C220.526 26.2526 221.008 25.9271 221.477 25.4844C221.971 25.0417 222.401 24.4818 222.766 23.8047C223.156 23.1016 223.391 22.2552 223.469 21.2656C223.547 20.3021 223.547 19.4167 223.469 18.6094C223.417 17.8021 223.299 17.099 223.117 16.5C222.935 15.875 222.727 15.3672 222.492 14.9766C222.258 14.5859 222.01 14.3125 221.75 14.1562C221.307 13.9219 220.773 13.7396 220.148 13.6094C219.523 13.4531 218.99 13.4792 218.547 13.6875C218.339 13.7917 218.078 14.013 217.766 14.3516C217.453 14.6901 217.141 15.1198 216.828 15.6406C216.516 16.1354 216.229 16.7083 215.969 17.3594C215.734 18.0104 215.565 18.6875 215.461 19.3906C215.357 20.0938 215.331 20.849 215.383 21.6562C215.461 22.4635 215.63 23.2318 215.891 23.9609C216.151 24.6641 216.516 25.276 216.984 25.7969C217.479 26.2917 218.104 26.5781 218.859 26.6562ZM230.578 10.2891C231.073 10.3151 231.516 10.3281 231.906 10.3281C232.323 10.3021 232.674 10.276 232.961 10.25C233.299 10.224 233.599 10.1979 233.859 10.1719C234.25 10.1198 234.654 10.0547 235.07 9.97656C235.435 9.92448 235.812 9.85938 236.203 9.78125C236.62 9.67708 237.023 9.5599 237.414 9.42969C237.258 9.82031 237.128 10.1589 237.023 10.4453C236.919 10.7318 236.841 10.9792 236.789 11.1875C236.711 11.4219 236.672 11.6172 236.672 11.7734C236.646 11.9557 236.633 12.1771 236.633 12.4375C236.607 12.8802 236.607 13.5964 236.633 14.5859C237.987 13.4141 239.12 12.5026 240.031 11.8516C240.969 11.2005 241.711 10.6927 242.258 10.3281C242.909 9.91146 243.417 9.63802 243.781 9.50781C244.745 9.35156 245.591 9.57292 246.32 10.1719C246.633 10.4323 246.932 10.7839 247.219 11.2266C247.505 11.6432 247.753 12.2031 247.961 12.9062C248.169 13.6094 248.326 14.4557 248.43 15.4453C248.534 16.4089 248.547 17.5677 248.469 18.9219C247.922 18.974 247.427 19.026 246.984 19.0781C246.568 19.1302 246.216 19.1693 245.93 19.1953C245.591 19.2474 245.279 19.2734 244.992 19.2734L243.938 19.3906C243.573 19.4427 243.117 19.4948 242.57 19.5469C242.049 19.5729 241.411 19.625 240.656 19.7031C241.75 18.8177 242.453 18.0495 242.766 17.3984C243.104 16.7214 243.247 16.1615 243.195 15.7188C243.143 15.224 242.909 14.7943 242.492 14.4297C241.997 14.1432 241.464 14.0391 240.891 14.1172C240.396 14.1693 239.823 14.3906 239.172 14.7812C238.521 15.1719 237.831 15.901 237.102 16.9688C237.154 18.6354 237.206 20.0156 237.258 21.1094C237.336 22.2031 237.401 23.0885 237.453 23.7656C237.531 24.5469 237.596 25.1589 237.648 25.6016C237.727 25.9922 237.883 26.4089 238.117 26.8516C238.299 27.2161 238.56 27.6198 238.898 28.0625C239.237 28.5052 239.68 28.9479 240.227 29.3906C239.081 29.3385 238.143 29.3385 237.414 29.3906C236.971 29.4167 236.581 29.4427 236.242 29.4688C235.878 29.5208 235.487 29.5729 235.07 29.625C234.706 29.6771 234.276 29.7292 233.781 29.7812C233.312 29.8594 232.792 29.9375 232.219 30.0156C232.427 29.7292 232.596 29.3906 232.727 29C232.857 28.6354 232.961 28.2839 233.039 27.9453C233.143 27.5547 233.221 27.151 233.273 26.7344C233.299 26.3698 233.312 25.8229 233.312 25.0938C233.339 24.3646 233.326 23.5443 233.273 22.6328C233.247 21.6953 233.208 20.7318 233.156 19.7422C233.104 18.7266 233.039 17.776 232.961 16.8906C232.883 16.0052 232.792 15.237 232.688 14.5859C232.609 13.9089 232.518 13.4401 232.414 13.1797C232.284 12.8672 232.128 12.5547 231.945 12.2422C231.789 11.9557 231.594 11.6562 231.359 11.3438C231.125 11.0052 230.865 10.6536 230.578 10.2891ZM16.9062 50.9375L19.0312 51.3438C18.8438 52.6354 18.7083 53.6771 18.625 54.4688C18.5417 55.2396 18.4792 55.8333 18.4375 56.25C18.3958 56.75 18.3958 57.1042 18.4375 57.3125C18.5208 57.7708 18.6354 58.1354 18.7812 58.4062C18.9479 58.6771 19.2604 58.7917 19.7188 58.75C19.9271 58.7292 20.1771 58.5312 20.4688 58.1562C20.7812 57.7604 21.0625 57.2917 21.3125 56.75C21.5625 56.2083 21.7604 55.6458 21.9062 55.0625C22.0729 54.4583 22.1146 53.9479 22.0312 53.5312C21.9479 53.0938 21.7604 52.6354 21.4688 52.1562C21.1771 51.6771 20.8542 51.2292 20.5 50.8125C20.1458 50.375 19.7917 50.0104 19.4375 49.7188C19.1042 49.4062 18.8438 49.2083 18.6562 49.125C18.4688 49.0417 18.0625 48.9167 17.4375 48.75C16.8125 48.5625 16.0938 48.4271 15.2812 48.3438C14.4896 48.2396 13.6771 48.2396 12.8438 48.3438C12.0104 48.4479 11.2917 48.75 10.6875 49.25C10.0833 49.7292 9.48958 50.3229 8.90625 51.0312C8.34375 51.7188 7.85417 52.4896 7.4375 53.3438C7.04167 54.1979 6.76042 55.125 6.59375 56.125C6.42708 57.1042 6.44792 58.1354 6.65625 59.2188C6.86458 60.3021 7.22917 61.2188 7.75 61.9688C8.29167 62.6979 8.90625 63.2917 9.59375 63.75C10.2812 64.2083 11 64.5312 11.75 64.7188C12.5208 64.9062 13.25 65 13.9375 65C14.4792 64.9792 15.0938 64.8854 15.7812 64.7188C16.3646 64.5938 17.0521 64.3958 17.8438 64.125C18.6354 63.8333 19.5 63.4375 20.4375 62.9375L20.875 64.8125C19.4375 65.4792 18.1458 65.9583 17 66.25C15.875 66.5208 14.9167 66.6979 14.125 66.7812C13.2083 66.8646 12.4062 66.8646 11.7188 66.7812C10.8646 66.6146 9.94792 66.3542 8.96875 66C7.98958 65.625 7.08333 65.125 6.25 64.5C5.4375 63.875 4.76042 63.1146 4.21875 62.2188C3.67708 61.3021 3.42708 60.1979 3.46875 58.9062C3.51042 57.6354 3.72917 56.2917 4.125 54.875C4.52083 53.4375 5.10417 52.1042 5.875 50.875C6.64583 49.625 7.61458 48.5521 8.78125 47.6562C9.94792 46.7604 11.3333 46.1979 12.9375 45.9688C14.5417 45.7188 15.9062 45.6875 17.0312 45.875C18.1562 46.0625 19.0938 46.3438 19.8438 46.7188C20.5938 47.0729 21.1771 47.4688 21.5938 47.9062C22.0104 48.3438 22.3021 48.6979 22.4688 48.9688C22.5729 49.1562 22.7188 49.4688 22.9062 49.9062C23.1146 50.3229 23.3125 50.8333 23.5 51.4375C23.6875 52.0208 23.8438 52.6562 23.9688 53.3438C24.0938 54.0312 24.1354 54.7292 24.0938 55.4375C24.0729 56.125 23.9479 56.8021 23.7188 57.4688C23.5104 58.1146 23.1562 58.6875 22.6562 59.1875C22.0938 59.75 21.5729 60.2292 21.0938 60.625C20.6771 60.9792 20.2708 61.2812 19.875 61.5312C19.4792 61.7604 19.1979 61.8229 19.0312 61.7188C18.5938 61.4062 18.2812 61.1562 18.0938 60.9688C17.9896 60.8646 17.8958 60.7604 17.8125 60.6562C17.75 60.5521 17.6875 60.4375 17.625 60.3125C17.5833 60.2083 17.5208 60.0833 17.4375 59.9375C17.375 59.7708 17.3229 59.5729 17.2812 59.3438C16.9896 60.2396 16.6042 60.9062 16.125 61.3438C15.6667 61.7812 15.2083 62.0833 14.75 62.25C14.2083 62.4583 13.6458 62.5417 13.0625 62.5C12.2917 62.4167 11.6042 62.1875 11 61.8125C10.3958 61.4375 9.89583 60.9583 9.5 60.375C9.125 59.7917 8.85417 59.1354 8.6875 58.4062C8.54167 57.6771 8.53125 56.9062 8.65625 56.0938C8.78125 55.2812 9.03125 54.5417 9.40625 53.875C9.78125 53.2083 10.2083 52.6354 10.6875 52.1562C11.1875 51.6562 11.7083 51.2812 12.25 51.0312C12.8125 50.7604 13.3438 50.6354 13.8438 50.6562C14.2188 50.6771 14.5938 50.7812 14.9688 50.9688C15.2812 51.1354 15.6042 51.375 15.9375 51.6875C16.2708 52 16.5625 52.4479 16.8125 53.0312L16.9062 50.9375ZM13.2188 60.5C13.5729 60.5833 13.9167 60.5104 14.25 60.2812C14.6042 60.0312 14.9271 59.7188 15.2188 59.3438C15.5104 58.9479 15.75 58.5208 15.9375 58.0625C16.1458 57.5833 16.2708 57.1562 16.3125 56.7812C16.375 56.4062 16.3854 56 16.3438 55.5625C16.3229 55.125 16.2396 54.7188 16.0938 54.3438C15.9479 53.9479 15.7292 53.6146 15.4375 53.3438C15.1667 53.0729 14.8125 52.9167 14.375 52.875C13.8125 52.8542 13.2604 53.1562 12.7188 53.7812C12.1979 54.3854 11.8333 55.2083 11.625 56.25C11.5625 56.5417 11.5417 56.9167 11.5625 57.375C11.5833 57.8333 11.6562 58.2812 11.7812 58.7188C11.9062 59.1562 12.0833 59.5417 12.3125 59.875C12.5625 60.2083 12.8646 60.4167 13.2188 60.5ZM25.875 45.9688C26.2708 46.2604 26.6667 46.4792 27.0625 46.625C27.4792 46.75 27.8542 46.8333 28.1875 46.875C28.5625 46.9375 28.9375 46.9479 29.3125 46.9062C29.6667 46.8646 30.0312 46.7396 30.4062 46.5312C30.7812 46.3229 31.2188 46.1042 31.7188 45.875C32.2188 45.6458 32.8021 45.4479 33.4688 45.2812C34.1562 45.0938 34.9792 45 35.9375 45C36.3542 45 36.7917 45.0833 37.25 45.25C37.7292 45.4167 38.1875 45.6354 38.625 45.9062C39.0625 46.1562 39.4583 46.4375 39.8125 46.75C40.1875 47.0625 40.4688 47.375 40.6562 47.6875C40.8646 48 41.0104 48.5104 41.0938 49.2188C41.1771 49.9062 41.2083 50.6562 41.1875 51.4688C41.1667 52.2812 41.0938 53.0833 40.9688 53.875C40.8646 54.6667 40.7083 55.3125 40.5 55.8125C40.25 56.25 39.7708 56.8125 39.0625 57.5C38.4583 58.0833 37.5521 58.8333 36.3438 59.75C35.1354 60.6667 33.5104 61.7604 31.4688 63.0312C32.6771 63.0104 33.6875 62.9792 34.5 62.9375C35.3333 62.875 36.0104 62.8125 36.5312 62.75C37.1354 62.6667 37.6146 62.5833 37.9688 62.5C38.2812 62.375 38.6146 62.1979 38.9688 61.9688C39.2604 61.7604 39.5729 61.4896 39.9062 61.1562C40.2604 60.8229 40.6042 60.3854 40.9375 59.8438C41 60.9688 41.0625 61.8542 41.125 62.5C41.1667 62.875 41.1979 63.1979 41.2188 63.4688C41.2396 63.7188 41.2604 64.0104 41.2812 64.3438C41.3021 64.6354 41.3125 64.9688 41.3125 65.3438C41.3333 65.7188 41.3646 66.1146 41.4062 66.5312C40.3646 66.2604 39.4167 66.0521 38.5625 65.9062C37.7083 65.7396 36.9792 65.625 36.375 65.5625C35.6667 65.4792 35.0312 65.4375 34.4688 65.4375C33.8854 65.4583 33.2396 65.5104 32.5312 65.5938C31.9062 65.6771 31.1562 65.8021 30.2812 65.9688C29.4271 66.1146 28.4583 66.3333 27.375 66.625C27.2917 66.3958 27.2188 66.1667 27.1562 65.9375C27.0938 65.6875 27.0417 65.4479 27 65.2188C26.9375 64.9688 26.8854 64.7188 26.8438 64.4688C26.8021 64.2188 26.7604 63.9792 26.7188 63.75C26.6771 63.5417 26.6458 63.3229 26.625 63.0938C26.6042 62.8646 26.5833 62.6458 26.5625 62.4375C28.2292 61.375 29.5833 60.4167 30.625 59.5625C31.6667 58.6875 32.4896 57.9479 33.0938 57.3438C33.7812 56.6354 34.3021 55.9896 34.6562 55.4062C35.0104 54.6979 35.3021 53.9167 35.5312 53.0625C35.7604 52.2083 35.8333 51.4167 35.75 50.6875C35.6875 49.9583 35.4375 49.3646 35 48.9062C34.5625 48.4271 33.8646 48.2188 32.9062 48.2812C32.2812 48.3229 31.6875 48.5417 31.125 48.9375C30.5833 49.3333 30.0833 49.8125 29.625 50.375C29.1667 50.9375 28.7604 51.5417 28.4062 52.1875C28.0521 52.8125 27.75 53.4062 27.5 53.9688C27.2708 54.5312 27.0833 55 26.9375 55.375C26.8125 55.75 26.75 55.9479 26.75 55.9688C26.7292 56.0104 26.6979 55.8542 26.6562 55.5C26.6354 55.1458 26.6042 54.7083 26.5625 54.1875C26.5417 53.6458 26.5104 53.0833 26.4688 52.5C26.4271 51.9167 26.3854 51.4271 26.3438 51.0312C26.3229 50.7188 26.2917 50.3125 26.25 49.8125C26.1875 49 26.0625 47.7188 25.875 45.9688ZM52.375 45.125C53.3333 45.1042 54.3021 45.3229 55.2812 45.7812C56.2604 46.2396 57.1458 46.9375 57.9375 47.875C58.7292 48.7917 59.375 49.9479 59.875 51.3438C60.375 52.7396 60.6354 54.375 60.6562 56.25C60.6771 57.5 60.5833 58.6354 60.375 59.6562C60.1667 60.6771 59.8854 61.5938 59.5312 62.4062C59.1771 63.1979 58.7708 63.9062 58.3125 64.5312C57.875 65.1354 57.4271 65.6562 56.9688 66.0938C56.5104 66.5104 56.0729 66.8438 55.6562 67.0938C55.2396 67.3438 54.8854 67.5104 54.5938 67.5938C54.2188 67.7188 53.7708 67.8333 53.25 67.9375C52.7292 68.0208 52.1875 68.0729 51.625 68.0938C51.0625 68.1354 50.5 68.1042 49.9375 68C49.3958 67.9167 48.9167 67.75 48.5 67.5C48.0833 67.25 47.5938 66.8958 47.0312 66.4375C46.4896 65.9583 45.9688 65.3125 45.4688 64.5C44.9688 63.6667 44.5417 62.625 44.1875 61.375C43.8333 60.125 43.6562 58.5938 43.6562 56.7812C43.6562 54.9688 43.8646 53.3438 44.2812 51.9062C44.7188 50.4688 45.3125 49.25 46.0625 48.25C46.8333 47.25 47.75 46.4896 48.8125 45.9688C49.8958 45.4271 51.0833 45.1458 52.375 45.125ZM47.9688 56.75C47.9479 57.9792 48.0208 59.0521 48.1875 59.9688C48.3542 60.8854 48.5521 61.6562 48.7812 62.2812C49.0104 62.9062 49.2396 63.4062 49.4688 63.7812C49.7188 64.1354 49.9062 64.3854 50.0312 64.5312C50.1562 64.7188 50.3854 64.8438 50.7188 64.9062C51.0521 64.9688 51.4062 65 51.7812 65C52.1562 64.9792 52.5208 64.9271 52.875 64.8438C53.2292 64.7396 53.5 64.6042 53.6875 64.4375C53.7917 64.3333 53.9375 64.0729 54.125 63.6562C54.3333 63.2396 54.5312 62.6979 54.7188 62.0312C54.9271 61.3646 55.1146 60.5938 55.2812 59.7188C55.4479 58.8229 55.5625 57.8646 55.625 56.8438C55.6875 55.6979 55.6875 54.6458 55.625 53.6875C55.5625 52.7083 55.4688 51.8542 55.3438 51.125C55.2188 50.3958 55.0729 49.7917 54.9062 49.3125C54.7396 48.8333 54.5625 48.5104 54.375 48.3438C54.1042 48.0938 53.7708 47.9167 53.375 47.8125C53 47.7083 52.6146 47.6667 52.2188 47.6875C51.8438 47.7083 51.4792 47.7812 51.125 47.9062C50.7917 48.0312 50.5312 48.1979 50.3438 48.4062C49.9688 48.8229 49.6354 49.2604 49.3438 49.7188C49.0521 50.1771 48.8125 50.7292 48.625 51.375C48.4375 52.0208 48.2812 52.7812 48.1562 53.6562C48.0521 54.5104 47.9896 55.5417 47.9688 56.75ZM62.5938 45.9688C62.9896 46.2604 63.3854 46.4792 63.7812 46.625C64.1979 46.75 64.5729 46.8333 64.9062 46.875C65.2812 46.9375 65.6562 46.9479 66.0312 46.9062C66.3854 46.8646 66.75 46.7396 67.125 46.5312C67.5 46.3229 67.9375 46.1042 68.4375 45.875C68.9375 45.6458 69.5208 45.4479 70.1875 45.2812C70.875 45.0938 71.6979 45 72.6562 45C73.0729 45 73.5104 45.0833 73.9688 45.25C74.4479 45.4167 74.9062 45.6354 75.3438 45.9062C75.7812 46.1562 76.1771 46.4375 76.5312 46.75C76.9062 47.0625 77.1875 47.375 77.375 47.6875C77.5833 48 77.7292 48.5104 77.8125 49.2188C77.8958 49.9062 77.9271 50.6562 77.9062 51.4688C77.8854 52.2812 77.8125 53.0833 77.6875 53.875C77.5833 54.6667 77.4271 55.3125 77.2188 55.8125C76.9688 56.25 76.4896 56.8125 75.7812 57.5C75.1771 58.0833 74.2708 58.8333 73.0625 59.75C71.8542 60.6667 70.2292 61.7604 68.1875 63.0312C69.3958 63.0104 70.4062 62.9792 71.2188 62.9375C72.0521 62.875 72.7292 62.8125 73.25 62.75C73.8542 62.6667 74.3333 62.5833 74.6875 62.5C75 62.375 75.3333 62.1979 75.6875 61.9688C75.9792 61.7604 76.2917 61.4896 76.625 61.1562C76.9792 60.8229 77.3229 60.3854 77.6562 59.8438C77.7188 60.9688 77.7812 61.8542 77.8438 62.5C77.8854 62.875 77.9167 63.1979 77.9375 63.4688C77.9583 63.7188 77.9792 64.0104 78 64.3438C78.0208 64.6354 78.0312 64.9688 78.0312 65.3438C78.0521 65.7188 78.0833 66.1146 78.125 66.5312C77.0833 66.2604 76.1354 66.0521 75.2812 65.9062C74.4271 65.7396 73.6979 65.625 73.0938 65.5625C72.3854 65.4792 71.75 65.4375 71.1875 65.4375C70.6042 65.4583 69.9583 65.5104 69.25 65.5938C68.625 65.6771 67.875 65.8021 67 65.9688C66.1458 66.1146 65.1771 66.3333 64.0938 66.625C64.0104 66.3958 63.9375 66.1667 63.875 65.9375C63.8125 65.6875 63.7604 65.4479 63.7188 65.2188C63.6562 64.9688 63.6042 64.7188 63.5625 64.4688C63.5208 64.2188 63.4792 63.9792 63.4375 63.75C63.3958 63.5417 63.3646 63.3229 63.3438 63.0938C63.3229 62.8646 63.3021 62.6458 63.2812 62.4375C64.9479 61.375 66.3021 60.4167 67.3438 59.5625C68.3854 58.6875 69.2083 57.9479 69.8125 57.3438C70.5 56.6354 71.0208 55.9896 71.375 55.4062C71.7292 54.6979 72.0208 53.9167 72.25 53.0625C72.4792 52.2083 72.5521 51.4167 72.4688 50.6875C72.4062 49.9583 72.1562 49.3646 71.7188 48.9062C71.2812 48.4271 70.5833 48.2188 69.625 48.2812C69 48.3229 68.4062 48.5417 67.8438 48.9375C67.3021 49.3333 66.8021 49.8125 66.3438 50.375C65.8854 50.9375 65.4792 51.5417 65.125 52.1875C64.7708 52.8125 64.4688 53.4062 64.2188 53.9688C63.9896 54.5312 63.8021 55 63.6562 55.375C63.5312 55.75 63.4688 55.9479 63.4688 55.9688C63.4479 56.0104 63.4167 55.8542 63.375 55.5C63.3542 55.1458 63.3229 54.7083 63.2812 54.1875C63.2604 53.6458 63.2292 53.0833 63.1875 52.5C63.1458 51.9167 63.1042 51.4271 63.0625 51.0312C63.0417 50.7188 63.0104 50.3125 62.9688 49.8125C62.9062 49 62.7812 47.7188 62.5938 45.9688ZM85.1875 45.375C85.875 45.4167 86.4375 45.4479 86.875 45.4688C87.3333 45.4896 87.6979 45.5 87.9688 45.5C88.2812 45.5208 88.5208 45.5208 88.6875 45.5H89.5C89.8125 45.5 90.25 45.5104 90.8125 45.5312C91.3958 45.5312 92.1562 45.5417 93.0938 45.5625C92.9896 45.7083 92.9062 45.8854 92.8438 46.0938C92.7812 46.3021 92.7292 46.5104 92.6875 46.7188C92.625 46.9479 92.5833 47.1979 92.5625 47.4688C92.5417 47.8021 92.5 48.3229 92.4375 49.0312C92.3958 49.6354 92.3333 50.4792 92.25 51.5625C92.1875 52.625 92.1042 54.0104 92 55.7188C92.6042 55.7188 93.125 55.6667 93.5625 55.5625C94 55.4375 94.3646 55.2917 94.6562 55.125C94.9896 54.9583 95.2604 54.7604 95.4688 54.5312C95.5729 54.4062 95.6875 54.2708 95.8125 54.125C95.9167 54 96.0521 53.8646 96.2188 53.7188C96.3854 53.5729 96.5625 53.4167 96.75 53.25C96.7083 53.8125 96.6771 54.3021 96.6562 54.7188C96.6354 55.1146 96.6146 55.4479 96.5938 55.7188C96.5729 56.0312 96.5521 56.2812 96.5312 56.4688C96.5312 56.6979 96.5104 57 96.4688 57.375C96.4271 57.7083 96.3854 58.1562 96.3438 58.7188C96.3021 59.2604 96.2604 59.9479 96.2188 60.7812C96.0104 60.3646 95.8125 60.0417 95.625 59.8125C95.4583 59.5625 95.3125 59.375 95.1875 59.25C95.0208 59.1042 94.875 59 94.75 58.9375C94.6042 58.8958 94.4062 58.8542 94.1562 58.8125C93.9271 58.7708 93.6354 58.75 93.2812 58.75C92.9479 58.7292 92.5104 58.7083 91.9688 58.6875C91.9688 59.9167 91.9896 60.9062 92.0312 61.6562C92.0938 62.4062 92.1562 62.9896 92.2188 63.4062C92.3021 63.9062 92.3958 64.2604 92.5 64.4688C92.625 64.6562 92.8021 64.875 93.0312 65.125C93.2396 65.3542 93.5208 65.625 93.875 65.9375C94.2292 66.25 94.6875 66.6042 95.25 67C94.7708 67.1042 94.3125 67.1771 93.875 67.2188C93.4583 67.2396 93.0729 67.2708 92.7188 67.3125C92.3229 67.3542 91.9479 67.375 91.5938 67.375C91.2188 67.375 90.7604 67.3958 90.2188 67.4375C89.7396 67.4792 89.1458 67.5208 88.4375 67.5625C87.7292 67.6042 86.875 67.6562 85.875 67.7188C86.2292 67.3646 86.5104 67.0417 86.7188 66.75C86.9479 66.4375 87.125 66.1667 87.25 65.9375C87.3958 65.6875 87.5 65.4688 87.5625 65.2812C87.6042 65.0521 87.6667 64.6667 87.75 64.125C87.8125 63.6667 87.8854 63.0312 87.9688 62.2188C88.0521 61.4062 88.1458 60.3333 88.25 59L79.75 59.0938L79.9062 57C80.9271 55.5417 81.7396 54.3333 82.3438 53.375C82.9688 52.3958 83.4479 51.6042 83.7812 51C84.1562 50.3125 84.4271 49.7708 84.5938 49.375C84.6979 49 84.7917 48.6042 84.875 48.1875C84.9583 47.8333 85.0312 47.4167 85.0938 46.9375C85.1562 46.4375 85.1875 45.9167 85.1875 45.375ZM88.625 56.0312C88.6667 55.4688 88.6979 54.9583 88.7188 54.5C88.7604 54.0208 88.7917 53.6042 88.8125 53.25C88.8333 52.8542 88.8438 52.4792 88.8438 52.125V50.9688C88.8438 50.5938 88.8438 50.1562 88.8438 49.6562C88.8646 49.1354 88.8854 48.5521 88.9062 47.9062L84.3125 56.0938L88.625 56.0312Z" fill="white"/>
</svg>
