<svg width="118" height="29" viewBox="0 0 118 29" fill="none" xmlns="http://www.w3.org/2000/svg">
<path d="M10.6875 5.625V9.90625C10.1875 10.0729 9.70833 10.2604 9.25 10.4688C8.79167 10.6562 8.38542 10.8333 8.03125 11C7.61458 11.2083 7.22917 11.4167 6.875 11.625L5.78125 12.2812C5.46875 12.4688 5.125 12.6771 4.75 12.9062C4.375 13.1354 4.03125 13.3542 3.71875 13.5625C4.07292 13.8125 4.40625 14.0417 4.71875 14.25C5.05208 14.4583 5.34375 14.6458 5.59375 14.8125C5.88542 15 6.16667 15.1771 6.4375 15.3438C6.77083 15.5521 7.15625 15.7708 7.59375 16C8.05208 16.2292 8.47917 16.4375 8.875 16.625C9.29167 16.8125 9.64583 16.9792 9.9375 17.125C10.2292 17.25 10.3854 17.3333 10.4062 17.375C10.4271 17.4375 10.4375 17.6354 10.4375 17.9688C10.4375 18.2604 10.4375 18.6979 10.4375 19.2812C10.4375 19.8646 10.4271 20.6875 10.4062 21.75C9.80208 21.1875 9.23958 20.6771 8.71875 20.2188C8.21875 19.7604 7.77083 19.3646 7.375 19.0312C6.91667 18.6562 6.48958 18.3229 6.09375 18.0312C5.67708 17.7396 5.17708 17.375 4.59375 16.9375C4.09375 16.5625 3.45833 16.0833 2.6875 15.5C1.9375 14.9167 1.04167 14.2292 0 13.4375C0.979167 12.7292 1.79167 12.1458 2.4375 11.6875C3.08333 11.2292 3.59375 10.8646 3.96875 10.5938C4.40625 10.2812 4.75 10.0521 5 9.90625C5.27083 9.71875 5.66667 9.4375 6.1875 9.0625C6.625 8.75 7.19792 8.32292 7.90625 7.78125C8.63542 7.21875 9.5625 6.5 10.6875 5.625ZM12.75 11.5312C13.5625 11.5521 14.3021 11.5625 14.9688 11.5625C15.6562 11.5625 16.25 11.5625 16.75 11.5625C17.3333 11.5625 17.8646 11.5521 18.3438 11.5312C18.8438 11.5312 19.4792 11.5104 20.25 11.4688C20.9167 11.4479 21.75 11.4167 22.75 11.375C23.7708 11.3333 25.0104 11.2812 26.4688 11.2188L26.3125 14.4062C25.1458 14.3229 24.1667 14.2708 23.375 14.25C22.6042 14.2083 21.9792 14.1771 21.5 14.1562C20.9375 14.1354 20.4792 14.1354 20.125 14.1562C19.7708 14.1771 19.2708 14.2083 18.625 14.25C18.0833 14.2917 17.3438 14.3438 16.4062 14.4062C15.4896 14.4479 14.3229 14.5208 12.9062 14.625L12.75 11.5312ZM37.8125 0.34375C38.4167 0.447917 38.9479 0.520833 39.4062 0.5625C39.8854 0.604167 40.2812 0.635417 40.5938 0.65625C40.9688 0.677083 41.2917 0.6875 41.5625 0.6875C41.8333 0.6875 42.2188 0.666667 42.7188 0.625C43.1354 0.583333 43.6771 0.53125 44.3438 0.46875C45.0312 0.40625 45.875 0.302083 46.875 0.15625C46.5833 0.239583 46.3125 0.479167 46.0625 0.875C45.8333 1.25 45.625 1.65625 45.4375 2.09375C45.2083 2.61458 45.0104 3.1875 44.8438 3.8125C44.6979 4.375 44.5104 5.14583 44.2812 6.125C44.0729 7.10417 43.8646 8.16667 43.6562 9.3125C43.4688 10.4583 43.3229 11.625 43.2188 12.8125C43.1146 13.9792 43.0938 15.0521 43.1562 16.0312C43.2396 17.0104 43.4375 17.8229 43.75 18.4688C44.0625 19.0938 44.5417 19.4271 45.1875 19.4688C46.1667 19.5521 46.9792 19.5625 47.625 19.5C48.2917 19.4167 48.8333 19.3021 49.25 19.1562C49.6667 19.0104 49.9896 18.8438 50.2188 18.6562C50.4479 18.4479 50.625 18.25 50.75 18.0625C51.0833 17.5833 51.4271 16.9688 51.7812 16.2188C52.1354 15.4688 52.4479 14.75 52.7188 14.0625C53.0104 13.375 53.25 12.7917 53.4375 12.3125C53.625 11.8333 53.7188 11.6042 53.7188 11.625C53.7188 11.6667 53.7083 11.9062 53.6875 12.3438C53.6875 12.7604 53.6771 13.2708 53.6562 13.875C53.6562 14.4583 53.6458 15.0729 53.625 15.7188C53.625 16.3646 53.6146 16.9167 53.5938 17.375C53.5729 17.75 53.5521 18.1667 53.5312 18.625C53.5104 19.0208 53.4896 19.4896 53.4688 20.0312C53.4688 20.5729 53.4479 21.1667 53.4062 21.8125C52.5312 21.75 51.6979 21.7083 50.9062 21.6875C50.1146 21.6667 49.4167 21.6562 48.8125 21.6562C48.1042 21.6562 47.4479 21.6667 46.8438 21.6875C46.1979 21.7083 45.4479 21.7396 44.5938 21.7812C43.8646 21.8229 42.9583 21.875 41.875 21.9375C40.7917 21.9792 39.5417 22.0417 38.125 22.125C38.2917 21.8333 38.4271 21.5625 38.5312 21.3125C38.6562 21.0625 38.75 20.8542 38.8125 20.6875C38.8958 20.4792 38.9479 20.3021 38.9688 20.1562C39.0938 19.4896 39.1979 18.6458 39.2812 17.625C39.3646 16.5833 39.4271 15.4792 39.4688 14.3125C39.5312 13.1458 39.5625 11.9583 39.5625 10.75C39.5833 9.52083 39.5833 8.38542 39.5625 7.34375C39.5417 6.30208 39.5 5.39583 39.4375 4.625C39.3958 3.85417 39.3333 3.32292 39.25 3.03125C39.1458 2.69792 39.0208 2.36458 38.875 2.03125C38.75 1.73958 38.5938 1.44792 38.4062 1.15625C38.2396 0.84375 38.0417 0.572917 37.8125 0.34375ZM63.8438 9C64.3854 9 64.9479 9.10417 65.5312 9.3125C66.1146 9.5 66.6771 9.75 67.2188 10.0625C67.7604 10.3542 68.25 10.6771 68.6875 11.0312C69.1458 11.3646 69.5208 11.6875 69.8125 12C70.3333 12.5625 70.6875 13.3229 70.875 14.2812C71.0833 15.2188 71.125 16.1875 71 17.1875C70.875 18.1667 70.5833 19.0938 70.125 19.9688C69.6667 20.8438 69.0312 21.4896 68.2188 21.9062C67.6354 22.1979 67.0625 22.4271 66.5 22.5938C65.9375 22.7604 65.3958 22.8854 64.875 22.9688C64.3542 23.0521 63.8646 23.0938 63.4062 23.0938C62.9479 23.0938 62.5521 23.0833 62.2188 23.0625C61.5938 23.0208 60.9375 22.8021 60.25 22.4062C59.5833 22.0104 58.9479 21.5208 58.3438 20.9375C57.7604 20.3542 57.2604 19.7188 56.8438 19.0312C56.4271 18.3229 56.1771 17.6562 56.0938 17.0312C55.9688 16.1771 55.9479 15.2812 56.0312 14.3438C56.1146 13.4062 56.4167 12.5417 56.9375 11.75C57.4792 10.9583 58.2917 10.3021 59.375 9.78125C60.4792 9.26042 61.9688 9 63.8438 9ZM62.8125 21.125C63.0417 21.1667 63.3542 21.1146 63.75 20.9688C64.1458 20.8021 64.5312 20.5417 64.9062 20.1875C65.3021 19.8333 65.6458 19.3854 65.9375 18.8438C66.25 18.2812 66.4375 17.6042 66.5 16.8125C66.5625 16.0417 66.5625 15.3333 66.5 14.6875C66.4583 14.0417 66.3646 13.4792 66.2188 13C66.0729 12.5 65.9062 12.0938 65.7188 11.7812C65.5312 11.4688 65.3333 11.25 65.125 11.125C64.7708 10.9375 64.3438 10.7917 63.8438 10.6875C63.3438 10.5625 62.9167 10.5833 62.5625 10.75C62.3958 10.8333 62.1875 11.0104 61.9375 11.2812C61.6875 11.5521 61.4375 11.8958 61.1875 12.3125C60.9375 12.7083 60.7083 13.1667 60.5 13.6875C60.3125 14.2083 60.1771 14.75 60.0938 15.3125C60.0104 15.875 59.9896 16.4792 60.0312 17.125C60.0938 17.7708 60.2292 18.3854 60.4375 18.9688C60.6458 19.5312 60.9375 20.0208 61.3125 20.4375C61.7083 20.8333 62.2083 21.0625 62.8125 21.125ZM87.25 9.75C87.1875 9.33333 87.1354 8.98958 87.0938 8.71875C87.0521 8.42708 87.0104 8.19792 86.9688 8.03125C86.9271 7.82292 86.8958 7.66667 86.875 7.5625C86.8333 7.45833 86.7812 7.34375 86.7188 7.21875C86.6771 7.11458 86.6042 6.98958 86.5 6.84375C86.4167 6.69792 86.3125 6.53125 86.1875 6.34375C86.4583 6.42708 86.7292 6.47917 87 6.5C87.2917 6.52083 87.5625 6.54167 87.8125 6.5625C88.0833 6.58333 88.3646 6.58333 88.6562 6.5625C88.9479 6.5625 89.2812 6.55208 89.6562 6.53125C89.9896 6.51042 90.3854 6.5 90.8438 6.5C91.3229 6.47917 91.8646 6.44792 92.4688 6.40625C92.1146 6.48958 91.8125 6.63542 91.5625 6.84375C91.3333 7.03125 91.1354 7.23958 90.9688 7.46875C90.7812 7.71875 90.625 7.98958 90.5 8.28125C90.3958 8.55208 90.3333 9.07292 90.3125 9.84375C90.2917 10.5938 90.2917 11.4896 90.3125 12.5312C90.3333 13.5521 90.3542 14.6562 90.375 15.8438C90.4167 17.0312 90.4375 18.1667 90.4375 19.25C90.4583 20.3333 90.4583 21.3229 90.4375 22.2188C90.4167 23.0938 90.3646 23.7396 90.2812 24.1562C89.9896 25.4688 89.4479 26.5312 88.6562 27.3438C87.8646 28.1771 86.8229 28.625 85.5312 28.6875C83.9688 28.75 82.7292 28.6042 81.8125 28.25C80.9167 27.8958 80.2188 27.4583 79.7188 26.9375C79.2188 26.4375 78.8438 25.9271 78.5938 25.4062C78.3438 24.8854 78.0833 24.4896 77.8125 24.2188C77.5625 23.9896 77.3125 23.7708 77.0625 23.5625C76.8333 23.3958 76.5938 23.2292 76.3438 23.0625C76.1146 22.8958 75.8854 22.7917 75.6562 22.75C76.2604 22.7708 76.8021 22.7812 77.2812 22.7812C77.7604 22.7812 78.1667 22.7812 78.5 22.7812C78.875 22.7812 79.2083 22.7708 79.5 22.75H80.5H83.3438C82.9271 22.875 82.6146 23.0104 82.4062 23.1562C82.1979 23.3229 82.0521 23.4896 81.9688 23.6562C81.8854 23.8438 81.8438 24.0312 81.8438 24.2188C81.9271 24.7188 82.1979 25.0833 82.6562 25.3125C83.1146 25.5417 83.7396 25.6771 84.5312 25.7188C85.3021 25.7604 85.8333 25.7396 86.125 25.6562C86.4167 25.5938 86.6458 25.4688 86.8125 25.2812C87.1458 24.7812 87.4271 24.1354 87.6562 23.3438C87.8229 22.6771 87.9375 21.8125 88 20.75C88.0833 19.6667 87.9896 18.3438 87.7188 16.7812C87.0521 17.6979 86.2812 18.3854 85.4062 18.8438C84.5312 19.3021 83.6979 19.6354 82.9062 19.8438C81.9688 20.0729 81.0208 20.1875 80.0625 20.1875C77.5417 20.0833 75.6562 19.5 74.4062 18.4375C73.1562 17.375 72.5833 15.9479 72.6875 14.1562C72.75 13.2604 73.0208 12.3646 73.5 11.4688C74 10.5729 74.6458 9.77083 75.4375 9.0625C76.25 8.35417 77.1771 7.79167 78.2188 7.375C79.2604 6.95833 80.3438 6.78125 81.4688 6.84375C82.3229 6.92708 83.125 7.08333 83.875 7.3125C84.5208 7.52083 85.1562 7.8125 85.7812 8.1875C86.4271 8.5625 86.9167 9.08333 87.25 9.75ZM77.3125 12.875C77.1875 13.6875 77.2396 14.4479 77.4688 15.1562C77.7188 15.8646 78.0625 16.4792 78.5 17C78.9375 17.5 79.4271 17.8958 79.9688 18.1875C80.5104 18.4583 81.0208 18.5833 81.5 18.5625C82.5 18.5417 83.3646 18.0938 84.0938 17.2188C84.8229 16.3229 85.2604 14.9896 85.4062 13.2188C85.4688 12.3438 85.3542 11.5938 85.0625 10.9688C84.7917 10.3229 84.4479 9.80208 84.0312 9.40625C83.6146 9.01042 83.1771 8.72917 82.7188 8.5625C82.2604 8.39583 81.8958 8.32292 81.625 8.34375C81.25 8.38542 80.8333 8.5 80.375 8.6875C79.9375 8.85417 79.5104 9.11458 79.0938 9.46875C78.6771 9.80208 78.3021 10.25 77.9688 10.8125C77.6562 11.375 77.4375 12.0625 77.3125 12.875ZM92.75 9.03125L98.5 9.09375C98.1667 10.3646 97.9167 11.4479 97.75 12.3438C97.6042 13.2396 97.5104 13.9896 97.4688 14.5938C97.3854 15.2812 97.3646 15.8646 97.4062 16.3438C97.4688 16.7812 97.5729 17.25 97.7188 17.75C97.8438 18.1667 98.0312 18.6458 98.2812 19.1875C98.5312 19.7292 98.8646 20.2708 99.2812 20.8125C99.0312 20.7292 98.7604 20.6667 98.4688 20.625C98.1771 20.5833 97.9062 20.5521 97.6562 20.5312C97.3646 20.5104 97.0729 20.5104 96.7812 20.5312C96.4896 20.5521 96.1667 20.5833 95.8125 20.625C95.5208 20.6667 95.1667 20.7188 94.75 20.7812C94.3333 20.8438 93.8958 20.9271 93.4375 21.0312C93.75 20.0938 93.9896 19.2812 94.1562 18.5938C94.3438 17.9062 94.4792 17.3333 94.5625 16.875C94.6458 16.3333 94.6979 15.8958 94.7188 15.5625C94.7188 15.1458 94.7188 14.6771 94.7188 14.1562C94.7188 13.6146 94.7188 13.0938 94.7188 12.5938C94.7188 12.0938 94.7083 11.6562 94.6875 11.2812C94.6667 10.8854 94.625 10.6354 94.5625 10.5312L94.25 10.2188C94.125 10.1146 93.9375 9.96875 93.6875 9.78125C93.4583 9.57292 93.1458 9.32292 92.75 9.03125ZM94.9688 4.21875C95.4062 3.98958 95.8438 3.92708 96.2812 4.03125C96.7396 4.13542 97.0938 4.33333 97.3438 4.625C97.5938 4.91667 97.6771 5.26042 97.5938 5.65625C97.5312 6.05208 97.1979 6.4375 96.5938 6.8125C95.9896 7.16667 95.4583 7.29167 95 7.1875C94.5417 7.08333 94.2188 6.86458 94.0312 6.53125C93.8438 6.19792 93.8125 5.8125 93.9375 5.375C94.0625 4.91667 94.4062 4.53125 94.9688 4.21875ZM101.375 19.5625C101.521 18.875 101.625 18.2708 101.688 17.75C101.771 17.2083 101.833 16.7604 101.875 16.4062C101.917 15.9896 101.938 15.6354 101.938 15.3438C101.917 14.9896 101.896 14.5729 101.875 14.0938C101.875 13.5938 101.854 13.1042 101.812 12.625C101.792 12.125 101.76 11.6875 101.719 11.3125C101.677 10.9167 101.625 10.6354 101.562 10.4688C101.479 10.3021 101.365 10.125 101.219 9.9375C100.927 9.58333 100.5 9.23958 99.9375 8.90625C100.417 8.80208 100.823 8.71875 101.156 8.65625C101.51 8.57292 101.802 8.5 102.031 8.4375C102.281 8.35417 102.5 8.28125 102.688 8.21875C102.854 8.15625 103.052 8.09375 103.281 8.03125C103.469 7.98958 103.698 7.9375 103.969 7.875C104.24 7.8125 104.552 7.73958 104.906 7.65625L104.812 10.5C105.479 9.70833 106.156 9.11458 106.844 8.71875C107.531 8.32292 108.177 8.04167 108.781 7.875C109.469 7.66667 110.146 7.5625 110.812 7.5625C111.646 7.60417 112.417 7.73958 113.125 7.96875C113.854 8.19792 114.479 8.46875 115 8.78125C115.542 9.07292 115.979 9.38542 116.312 9.71875C116.646 10.0521 116.844 10.3438 116.906 10.5938C117.156 11.4062 117.219 12.1562 117.094 12.8438C116.969 13.5104 116.802 14.1667 116.594 14.8125C116.406 15.4375 116.24 16.0625 116.094 16.6875C115.969 17.3125 116.021 17.9896 116.25 18.7188C116.333 18.9062 116.417 19.0938 116.5 19.2812C116.583 19.4479 116.688 19.6146 116.812 19.7812C116.938 19.9479 117.083 20.0833 117.25 20.1875C117.021 20.1667 116.792 20.1562 116.562 20.1562C116.333 20.1354 116.125 20.1146 115.938 20.0938C115.708 20.0729 115.5 20.0521 115.312 20.0312C115.104 20.0104 114.823 20 114.469 20C113.865 20 112.927 20.0312 111.656 20.0938C111.844 19.6562 111.99 19.2917 112.094 19C112.219 18.6875 112.323 18.4375 112.406 18.25C112.49 18.0208 112.552 17.8438 112.594 17.7188C112.844 17.1146 112.99 16.4271 113.031 15.6562C113.094 14.8854 113.042 14.1042 112.875 13.3125C112.812 13.0417 112.708 12.7188 112.562 12.3438C112.417 11.9688 112.219 11.6042 111.969 11.25C111.74 10.8958 111.458 10.5938 111.125 10.3438C110.812 10.0938 110.448 9.94792 110.031 9.90625C109.615 9.86458 109.146 9.96875 108.625 10.2188C108.125 10.4688 107.583 10.9271 107 11.5938C106.562 12.1562 106.219 12.8438 105.969 13.6562C105.74 14.3438 105.583 15.2083 105.5 16.25C105.417 17.2708 105.542 18.4688 105.875 19.8438C105.583 19.8021 105.312 19.7812 105.062 19.7812C104.812 19.7604 104.604 19.7396 104.438 19.7188C104.229 19.6979 104.042 19.6771 103.875 19.6562C103.688 19.6562 103.479 19.6458 103.25 19.625C103.042 19.625 102.781 19.625 102.469 19.625C102.156 19.6042 101.792 19.5833 101.375 19.5625Z" fill="white"/>
</svg>
